Coordinates
version=1
nRows=20
nColumns=38
inDegrees=no

Units are S.I. units (second, meters, Newtons, ...)
If the header above contains a line with 'inDegrees', this indicates whether rotational values are in degrees (yes) or radians (no).

endheader
time	pelvis_tilt	pelvis_list	pelvis_rotation	pelvis_tx	pelvis_ty	pelvis_tz	hip_flexion_r	hip_adduction_r	hip_rotation_r	knee_angle_r	ankle_angle_r	subtalar_angle_r	mtp_angle_r	hip_flexion_l	hip_adduction_l	hip_rotation_l	knee_angle_l	ankle_angle_l	subtalar_angle_l	mtp_angle_l	lumbar_extension	lumbar_bending	lumbar_rotation	arm_flex_r	arm_add_r	arm_rot_r	elbow_flex_r	pro_sup_r	wrist_flex_r	wrist_dev_r	arm_flex_l	arm_add_l	arm_rot_l	elbow_flex_l	pro_sup_l	wrist_flex_l	wrist_dev_l
1.54	-0.00553228	1.54168	-0.934594	0.734198	1.3977	0.933488	0.0961051	-0.00249268	-0.410464	0.145684	-0.0013906	0	0	0.191946	-0.292138	-0.0193032	1.04156	-0.0554063	0	0	-0.308234	0.151699	0.207148	1.00102	-0.419674	0.481536	0.79326	1.44755	0	0	-0.0195928	-0.382051	0.369172	0.70035	1.22438	0	0
1.55	0.214103	1.54538	-1.15088	0.733789	1.39199	0.934446	0.08986	-0.00500592	-0.410406	0.143861	0.000157927	0	0	0.211733	-0.278458	-0.0174118	1.05154	-0.0567198	0	0	-0.313147	0.14579	0.218625	1.02141	-0.420931	0.491092	0.767555	1.45246	0	0	-0.0200583	-0.380018	0.373093	0.701469	1.23014	0	0
1.56	0.469911	1.54832	-1.40339	0.733424	1.38635	0.935294	0.0845132	-0.00718988	-0.410666	0.141876	0.00180963	0	0	0.231636	-0.26449	-0.0164399	1.05844	-0.0572269	0	0	-0.31693	0.140265	0.229745	1.04013	-0.421993	0.501082	0.742474	1.45699	0	0	-0.0205342	-0.377595	0.376994	0.701175	1.23723	0	0
1.57	0.756817	1.55	-1.68686	0.733121	1.38074	0.936037	0.0793723	-0.00875486	-0.410972	0.139179	0.00323106	0	0	0.251247	-0.25048	-0.0162559	1.06281	-0.0538147	0	0	-0.319843	0.135259	0.2403	1.05663	-0.42274	0.510619	0.718674	1.45997	0	0	-0.0211949	-0.374969	0.380246	0.699986	1.24382	0	0
1.58	1.05076	1.5498	-1.97753	0.732865	1.37509	0.936724	0.0739266	-0.00994098	-0.411078	0.136256	0.00494046	0	0	0.269564	-0.236653	-0.0177866	1.06483	-0.0449849	0	0	-0.322587	0.130385	0.250672	1.07042	-0.423398	0.518781	0.697116	1.46024	0	0	-0.0219915	-0.372594	0.38431	0.698449	1.25039	0	0
1.59	1.31244	1.54738	-2.2368	0.732668	1.36935	0.93743	0.0678086	-0.0113816	-0.410568	0.13327	0.00751279	0	0	0.285571	-0.222676	-0.0219132	1.06406	-0.0321348	0	0	-0.325639	0.124916	0.261437	1.08113	-0.424306	0.525087	0.678868	1.45734	0	0	-0.0231107	-0.370862	0.39168	0.697099	1.26067	0	0
1.6	1.51632	1.54359	-2.43897	0.732579	1.36359	0.938118	0.0615103	-0.013003	-0.409459	0.130096	0.0104584	0	0	0.299926	-0.208375	-0.0278928	1.06046	-0.0184282	0	0	-0.328565	0.119245	0.27233	1.08909	-0.425155	0.529942	0.663404	1.45083	0	0	-0.024564	-0.368528	0.398398	0.694944	1.27278	0	0
1.61	1.65639	1.53901	-2.5772	0.73257	1.35781	0.938789	0.0546393	-0.0143533	-0.408439	0.126491	0.0135218	0	0	0.312895	-0.1941	-0.0345344	1.05402	-0.0066369	0	0	-0.331559	0.113699	0.282397	1.09458	-0.425562	0.533826	0.650441	1.43986	0	0	-0.0264707	-0.365685	0.402078	0.692101	1.28377	0	0
1.62	1.74676	1.53389	-2.66563	0.732639	1.35198	0.939447	0.0467728	-0.0154179	-0.407462	0.122065	0.016454	0	0	0.324235	-0.179856	-0.0417607	1.04473	0.00240693	0	0	-0.334872	0.108248	0.291644	1.09714	-0.426081	0.53652	0.641393	1.42401	0	0	-0.0288098	-0.362824	0.403722	0.688844	1.29255	0	0
1.63	1.80949	1.52866	-2.72633	0.732739	1.34616	0.940061	0.0387267	-0.0163011	-0.406659	0.11784	0.019671	0	0	0.334572	-0.165577	-0.0491389	1.0331	0.00905201	0	0	-0.338363	0.102879	0.299914	1.09718	-0.426482	0.537779	0.635469	1.40437	0	0	-0.0318494	-0.360284	0.406393	0.685746	1.30365	0	0
1.64	1.85801	1.52317	-2.77259	0.732951	1.3404	0.940636	0.0304729	-0.0175229	-0.406269	0.113686	0.0230288	0	0	0.343959	-0.150746	-0.0562945	1.01923	0.0146209	0	0	-0.341815	0.0973604	0.307248	1.09485	-0.426849	0.53721	0.632261	1.3839	0	0	-0.0351233	-0.358069	0.411024	0.682524	1.31897	0	0
1.65	1.90289	1.51823	-2.81495	0.733118	1.3347	0.941094	0.0229198	-0.0181871	-0.405994	0.109576	0.0264395	0	0	0.353421	-0.136343	-0.0631999	1.0039	0.0206569	0	0	-0.344862	0.0920248	0.313757	1.09116	-0.426549	0.534671	0.630271	1.3656	0	0	-0.038418	-0.355885	0.41404	0.679046	1.33499	0	0
1.66	1.93986	1.51352	-2.84937	0.733291	1.32904	0.941504	0.0155464	-0.0185582	-0.405445	0.105592	0.029808	0	0	0.362042	-0.122146	-0.0703669	0.986531	0.0276882	0	0	-0.347888	0.0868421	0.319417	1.0866	-0.425246	0.530279	0.628034	1.35158	0	0	-0.0419178	-0.35329	0.414672	0.675054	1.35001	0	0
1.67	1.96534	1.50865	-2.87224	0.733555	1.32335	0.941906	0.00770668	-0.0189689	-0.405403	0.101641	0.0332379	0	0	0.368981	-0.107732	-0.0780519	0.966801	0.0355861	0	0	-0.351082	0.0817138	0.324216	1.08131	-0.42294	0.524334	0.624908	1.34329	0	0	-0.0455258	-0.350599	0.414668	0.670315	1.3637	0	0
1.68	1.98615	1.50369	-2.89047	0.733913	1.31763	0.942256	-0.000354718	-0.0194241	-0.405546	0.0976128	0.036806	0	0	0.374677	-0.0932924	-0.0865869	0.945192	0.044067	0	0	-0.354118	0.0765142	0.328112	1.0751	-0.419395	0.517704	0.622085	1.33586	0	0	-0.049539	-0.348107	0.414716	0.665416	1.37609	0	0
1.69	2.00532	1.49888	-2.90722	0.734337	1.31189	0.942524	-0.00857038	-0.0195892	-0.405468	0.0930466	0.040479	0	0	0.379557	-0.079135	-0.0959444	0.922052	0.0519483	0	0	-0.356909	0.0713819	0.331151	1.06824	-0.414632	0.510656	0.620195	1.32427	0	0	-0.0542359	-0.345678	0.414614	0.660678	1.3882	0	0
1.7	2.02216	1.49456	-2.9219	0.734816	1.30616	0.942698	-0.017018	-0.019134	-0.404862	0.0877455	0.0439876	0	0	0.383763	-0.0656002	-0.105975	0.897418	0.0581307	0	0	-0.359512	0.0666954	0.333587	1.06112	-0.409141	0.502664	0.618748	1.3092	0	0	-0.0594754	-0.343286	0.413852	0.656362	1.39941	0	0
1.71	2.03507	1.49067	-2.93296	0.735349	1.30043	0.942797	-0.0257253	-0.0181724	-0.403585	0.082263	0.0473505	0	0	0.38716	-0.0526479	-0.116652	0.871258	0.0618058	0	0	-0.362204	0.062484	0.335567	1.05387	-0.403324	0.492227	0.617399	1.2975	0	0	-0.0651781	-0.341002	0.412864	0.652981	1.40744	0	0
1.72	2.0453	1.48728	-2.94164	0.735892	1.29471	0.942816	-0.0345213	-0.0166548	-0.401979	0.0766745	0.0505661	0	0	0.389826	-0.0403023	-0.127803	0.843703	0.0636536	0	0	-0.365042	0.0587575	0.337282	1.04608	-0.397326	0.477913	0.617219	1.2898	0	0	-0.0711606	-0.338637	0.411527	0.650032	1.41443	0	0
1.73	2.05208	1.48437	-2.94741	0.73646	1.28896	0.942769	-0.0436169	-0.0145208	-0.400751	0.0703677	0.0537204	0	0	0.39156	-0.028755	-0.140059	0.814856	0.0645696	0	0	-0.368102	0.055456	0.339303	1.03702	-0.391556	0.458526	0.619776	1.28564	0	0	-0.0770567	-0.336288	0.411226	0.647222	1.4209	0	0
